<?xml version="1.0" encoding="utf-8"?>
<svg version="1.0" viewBox="0 0 1000 150" xmlns="http://www.w3.org/2000/svg">
  <defs>
    <linearGradient id="b" x1="-1341.4" x2="-1340" y1="1057.3" y2="919.76" gradientTransform="translate(1307.6 -473.68) scale(.58648)" gradientUnits="userSpaceOnUse">
      <stop offset="0" style="stop-color:#6c94b1"/>
      <stop offset="1" style="stop-color:#b3b3b3;stop-opacity:0"/>
    </linearGradient>
    <filter id="a" width="1.582" height="1.582" x="-.291" y="-.291" color-interpolation-filters="sRGB">
      <feGaussianBlur stdDeviation="12.727"/>
    </filter>
  </defs>
  <!-- <path d="M-1802 683.59a52.5 52.5 0 1 1-105 0 52.5 52.5 0 1 1 105 0z" style="filter:url(#a);fill:#fee872" transform="translate(2433.2 -600.77)"/> -->
  <path d="m999.62 127.09-.147-16.781h-6.842v15.966h-3.733v-19.699h-6.428v14.722h-5.183v-11.612h-5.599v10.99h-5.184v-14.722s-4.354-11.612-7.88 0v14.722h-1.036V96.001l-6.973 4.026v21.997h-2.98v-21.876h-1.659v-3.733h-5.08v3.11h-2.488v21.98h-2.696V104.19l-1.451-.104-1.555-10.886-1.66 10.99h-2.073v17.314l-2.177-.207V98.282l-4.172-7.227-3.811.073-4.54 7.864v22.928h-4.895V94.964h-7.36v26.852h-1.763V97.245h-5.806v23.535h-.83v-20.735l-5.444 1.459v19.38h-6.064V97.142l-1.91-3.309-1.985 3.438v23.301h-5.643v-24.57h-6.22v24.156h-1.245V93.41h-10.056v26.23h-4.043v-14.722h-5.702v13.996h-.83V92.786h-6.739v26.334h-1.866V94.963h-8.19v24.571h-3.836V95.191h-2.44v-6.598h-4.326v6.598h-3.152v24.486h-4.105v-16.422h-6.965v16.495h-6.524V97.244s-3.813-4.692-8.651-.513c.073 2.273 0 23.24 0 23.24h-1.613v-19.722h-4.985l-5.038 18.802h-2.586v-8.098l-1.1-2.713-.953 2.713h-5.425l-.623-2.465-.962 2.455v8.037h-3.657v-12.426h-4.545v12.17h-2.09V97.611h-6.45v20.82h-4.546V94.532h-7.184v5.132h-2.64v-5.865h-6.45v24.486h-1.76V103.33h-4.252v14.515h-2.933V98.638h-4.838v18.914h-4.839V94.24h-5.571l.293 32.697 296.68.153z" style="fill-rule:evenodd;fill:#ccc"/>
  <path d="m570.86 130.35.147-16.781h6.842v15.966h3.733v-19.699h6.428v14.722h5.184v-11.612h5.598v10.99h5.184v-14.722s4.354-11.612 7.88 0v14.722h1.036V99.261l6.973 4.026v21.997h2.98v-21.876h1.659v-3.733h5.08v3.11h2.488v21.98h2.696V107.45l1.451-.103 1.555-10.886 1.66 10.99h2.073v17.314l2.177-.208v-23.016l4.172-7.226 3.811.073 4.54 7.864v22.928h4.895V98.224h7.36v26.852h1.763v-24.571h5.806v23.535h.83v-20.735l5.444 1.459v19.38h6.064v-23.742l1.91-3.309 1.985 3.438v23.301h5.643v-24.57h6.22v24.156h1.245V96.67h10.056v26.23h4.043v-14.722h5.702v13.996h.83V96.046h6.739v26.334h1.866V98.223h8.19v24.571h3.837V98.451h2.44v-6.598h4.325v6.598h3.152v24.486h4.105v-16.422h6.965v16.495h6.524v-22.506s3.813-4.692 8.651-.513c-.073 2.273 0 23.24 0 23.24h1.613v-19.722h4.985l5.038 18.802h2.586v-8.098l1.1-2.713.953 2.713h5.425l.623-2.465.962 2.455v8.037h3.657v-12.426h4.545v12.17h2.09v-21.113h6.45v20.82h4.546V97.792h7.184v5.132h2.64v-5.865h6.45v24.486h1.76V106.59h4.252v14.516h2.933v-19.207h4.838v18.914h4.839V97.5h5.571l-.293 32.697-296.68.153z" style="fill-rule:evenodd;fill:#b3b3b3"/>
  <path d="m424.66 132.09.147-16.781h6.842v15.966h3.733v-19.699h6.428v14.722h5.183v-11.612h5.599v10.99h5.184v-14.722s4.354-11.612 7.88 0v14.722h1.036v-24.675l6.973 4.026v21.997h2.98v-21.876h1.659v-3.733h5.08v3.11h2.488v21.98h2.696V109.19l1.451-.104 1.556-10.886 1.658 10.99h2.074v17.314l2.177-.207 2.25-25.83 2.86-4.413 2.873.073 3.29 4.364 1.25 26.428h4.895V99.964h7.36v26.852h1.763v-24.571h5.806v23.535h.83v-20.735l5.444 1.459v19.38h6.064v-23.742l1.91-3.309 1.985 3.438v23.301h5.643v-24.571h6.22v24.157h1.245V98.409h10.057v26.23h4.043v-14.722h5.702v13.996h.83V97.786h6.739v26.334h1.866V99.963h8.19v24.571h3.836v-24.343h2.44v-6.598h4.325v6.598h3.153v24.486h4.105v-16.422h6.965v16.495h6.524v-22.506s3.813-4.692 8.651-.513c-.073 2.272 0 23.239 0 23.239h1.613v-19.72h4.985l5.038 18.802h2.586v-8.099l1.1-2.712.953 2.712h5.425l.623-2.465.962 2.456v8.037h3.657v-12.426h4.545v12.17h2.09v-21.113h6.45v20.82h4.546V99.533h7.184v5.132h2.64V98.8h6.45v24.486h1.76V108.33h4.252v14.515h2.933v-19.207h4.838v18.914h4.839V99.24h5.571l-.293 32.696-296.68.153z" style="fill-rule:evenodd;fill:#ccc"/>
  <path d="m170.65 129.07.147-16.781h6.843v15.966h3.732v-19.699h6.428v14.722h5.184v-11.612h5.598v10.99h5.184v-14.722s4.355-11.612 7.88 0v14.722h1.036V97.981l6.973 4.026v21.997h2.98v-21.876h1.659v-3.733h5.08v3.11h2.488v21.98h2.696V106.17l1.451-.104 1.556-10.886 1.659 10.99h2.073v17.314l2.177-.207v-23.016l4.173-7.227 3.81.073 4.54 7.864V123.9h4.895V96.944h7.36v26.852h1.763v-24.57h5.806v23.534h.83v-20.735l5.444 1.46v19.38h6.064V99.121l1.91-3.308 1.985 3.438v23.3h5.643v-24.57h6.22v24.157h1.245v-26.75h10.057v26.23h4.043v-14.721h5.703v13.996h.829V94.767h6.739V121.1h1.866V96.944h8.19v24.57h3.837V97.173h2.44v-6.598h4.325v6.598h3.152v24.486h4.105v-16.422h6.965v16.495h6.525V99.225s3.812-4.692 8.65-.514c-.073 2.273 0 23.24 0 23.24h1.613v-19.722h4.985l5.038 18.802h2.586v-8.098l1.1-2.713.953 2.713h5.425l.623-2.465.962 2.456v8.036h3.657v-12.426h4.545v12.17h2.09V99.591h6.45v20.82h4.546V96.512h7.184v5.132h2.64v-5.865h6.45v24.486h1.76V105.31h4.252v14.515h2.933v-19.207h4.838v18.914h4.839V96.22h5.571l-.293 32.696-296.68.153z" style="fill-rule:evenodd;fill:#ccc"/>
  <path d="m477.83 129.17-.147-16.781h-6.842v15.966h-3.733v-19.699h-6.428v14.722h-5.183v-11.612h-5.6v10.99h-5.183v-14.722s-4.354-11.612-7.88 0v14.722h-1.036V98.081l-6.973 4.026v21.997h-2.98v-21.876h-1.659v-3.733h-5.08v3.11h-2.488v21.98h-2.696V106.27l-1.451-.104-1.555-10.886-1.66 10.99h-2.073v17.314l-2.177-.207v-23.016l-4.172-8.47-3.811.073-4.54 9.107V124h-4.895V97.044h-7.36v26.852h-1.763V99.325h-5.806v23.535h-.83v-20.735l-5.444 1.459v19.38h-6.064V99.222l-1.91-3.308-1.985 3.437v23.301h-5.643v-24.57h-6.22v24.156h-1.245V95.49h-10.057v26.23h-4.043v-14.722h-5.702v13.996h-.83V94.866h-6.739V121.2h-1.866V97.043h-8.19v24.571h-3.836V97.271h-2.44v-6.598h-4.325v6.598h-3.153v24.486h-4.105v-16.422h-6.965v16.495h-6.524V99.324s-3.812-4.691-8.65-.513c.072 2.273 0 23.24 0 23.24h-1.614v-19.722h-4.985l-5.038 18.802h-2.586v-8.098l-1.1-2.713-.953 2.713h-5.425l-.623-2.465-.962 2.456v8.036h-3.657v-12.426h-4.545v12.17h-2.09V99.691h-6.45v20.82h-4.546V96.612h-7.184v5.132h-2.64v-5.865h-6.45v24.486h-1.76V105.41h-4.252v14.516H196.1V100.72h-4.838v18.914h-4.839V96.32h-5.571l.293 32.697 296.68.153z" style="fill-rule:evenodd;fill:#e6e6e6"/>
  <path d="m69.126 132.4.147-16.781h6.842v15.966h3.733v-19.699h6.428v14.722h5.183v-11.612h5.599v10.99h5.184v-14.722s4.354-11.612 7.88 0v14.722h1.036v-24.675l6.973 4.026v21.997h2.98v-21.876h1.659v-3.733h5.08v3.11h2.488v21.98h2.696V109.5l1.451-.104 1.555-10.886 1.66 10.99h2.073v17.314l2.177-.207v-23.016l4.172-7.227 3.811.073 4.54 7.864v22.928h4.895v-26.956h7.36v26.852h1.763v-24.57h5.806v23.534h.83v-20.735l5.444 1.459v19.38h6.064v-23.742l1.91-3.308 1.985 3.438v23.3h5.643v-24.57h6.22v24.157h1.245v-26.75h10.057v26.23h4.043v-14.721h5.702v13.996h.83V98.097h6.739v26.334h1.866v-24.157h8.19v24.57h3.836v-24.342h2.44v-6.598h4.325v6.598h3.153v24.486h4.105v-16.422h6.965v16.495h6.524v-22.506s3.812-4.692 8.651-.514c-.074 2.273 0 23.24 0 23.24h1.613v-19.722h4.985l5.038 18.802h2.586v-8.098l1.1-2.713.953 2.713h5.425l.623-2.465.962 2.456v8.036h3.656v-12.426h4.546v12.17h2.09v-21.113h6.45v20.82h4.546V99.842h7.184v5.132h2.64V99.11h6.45v24.486h1.76V108.64h4.252v14.515h2.932v-19.207h4.839v18.914h4.838V99.55h5.572l-.293 32.696-296.68.154z" style="fill-rule:evenodd;fill:#b3b3b3"/>
  <path d="M.324 98.673h5.89v24.157H7.46V96.081h10.057v26.23h4.043v-14.722h5.702v13.996h.83V95.458h6.739v26.334h1.866V97.635h8.19v24.571h3.836V97.863h2.44v-6.598h4.325v6.598h3.153v24.486h4.105v-16.422h6.965v16.495h6.524V99.916s3.813-4.692 8.651-.513c-.073 2.272 0 23.239 0 23.239h1.613V102.92h4.985l5.038 18.802h2.586v-8.099l1.1-2.712.953 2.712h5.425l.623-2.465.962 2.456v8.037h3.657v-12.426h4.545v12.17h2.09v-21.113h6.45v20.82h4.546v-23.9h7.184v5.133h2.64V96.47h6.45v24.486h1.76v-14.955h4.252v14.515h2.933V101.31h4.838v18.914h4.839V96.91h5.571l-.293 32.696-169.31.087" style="fill-rule:evenodd;fill:#4d4d4d"/>
  <path d="M185.41 98.706h-5.89v24.157h-1.244V96.114h-10.057v26.23h-4.044v-14.722h-5.702v13.996h-.83V95.491h-6.738v26.334h-1.866V97.668h-8.191v24.571h-3.836V97.896h-2.44v-6.598h-4.325v6.598h-3.152v24.486h-4.106V105.96h-6.964v16.495H109.5V99.949s-3.812-4.692-8.65-.513c.073 2.272 0 23.239 0 23.239h-1.613v-19.721h-4.985l-5.038 18.802h-2.587v-8.099l-1.1-2.712-.952 2.712H79.15l-.624-2.465-.962 2.456v8.037h-3.656v-12.426h-4.545v12.17h-2.09v-21.113h-6.451v20.82h-4.545V97.237h-7.185v5.132h-2.639v-5.865h-6.451v24.486h-1.76v-14.955H33.99v14.516h-2.932v-19.207h-4.839v18.914h-4.838V96.945h-5.572l.293 32.697 169.31.087" style="fill-rule:evenodd;fill:#b3b3b3"/>
  <path d="M791.83 125.84h1.683V98.884h7.361v26.852h1.763v-24.571h5.806V124.7h.83v-20.735l5.444 1.459v19.38h6.063v-23.742l1.91-3.309 1.985 3.438v23.301h5.644v-24.57h6.22v24.156h1.244V97.33h10.056v26.23h4.044v-14.722h5.702v13.996h.83V96.706h6.739v26.334h1.866V98.883h8.19v24.571h3.836V99.111h2.44v-6.598h4.325v6.598h3.153v24.486h4.105v-16.422h6.965v16.495h6.524v-22.506s3.812-4.691 8.65-.513c-.072 2.273 0 23.24 0 23.24h1.614v-19.722h4.985l5.038 18.802h2.586v-8.098l1.1-2.713.953 2.713h5.425l.623-2.465.962 2.456v8.036h3.657v-12.426h4.545v12.17h2.09v-21.113h6.45v20.82h4.546V98.452h7.184v5.132h2.64V97.72h6.45v24.486h1.76V107.25h4.252v14.516h2.933V102.56h4.838v18.914h4.839V98.16h5.571l-.293 32.697-208.12.108M332.05 121.5V81.844c0-1.857 2.54-6.33 5.733-6.408 3.344-.082 5.962 4.66 6.032 6.408.007.18 0 39.418 0 39.418l-11.765.238z" style="fill-rule:evenodd;fill:#999"/>
  <path d="m439.62 58.911 3.462 10.78v53.111l-15.118.145v-53.85l3.333-9.88 4.236-6.858 4.087 6.552zM448.38 114.46V67.531h3.148v3.018h7.448v-3.034h2.942v46.928l-13.538.017z" style="fill-rule:evenodd;fill:#ccc"/>
  <path d="m953.89 121.45.088-53.422-12.009 7.534v45.887h11.921z" style="fill-rule:evenodd;fill:#ececec"/>
  <path d="m969.59 85.094 1.964 6.116v30.132l-8.577.082v-30.55l1.891-5.606 2.403-3.89 2.319 3.717z" style="fill-rule:evenodd;fill:#f2f2f2"/>
  <path d="M.025 46.611h999.99v99.824H.025z" style="fill:url(#b)"/>
  <path d="M.012 121.28h999.97v20.859H.012z" style="fill: rgb(77, 76, 76);"/>
  <path d="M.013 139.04h999.96V150H.013z" style="fill: rgb(237, 236, 236);"/>
  <path d="m66.506 121.3.956-.071 3.14.441c.55.156.835.51 1.366.675l1.23.147c.408.107 1.578.89 1.883 1.2.323.327.957 1.426 1.035 1.882.01.447-.302.936 0 1.284.345.325.883.115 1.44.417.503.274.67.745 1.02 1.162.537.643 1.473 1.212 1.415 2.187-.073 1.251-2.482.691-2.947 1.92-.398 1.052 2.23.892 1.802 2.173-.327.975-1.773.785-2.508 1.064l-1.775 1.015c-.418.187-.88.544-1.341.271-.811-.483-.624-1.496-.79-1.932-.15-.396-.514-.682-.873-.885-.27-.152-.631-.313-.938-.18-.533.228-1.255 1.26-1.328 1.844l-.686 3.499c-.105.487.085 1.06.084 1.593 0 .297.029.702-.14.953-.489.144-.758.245-1.317-.142-.284-.606.052-.89.135-1.58.027-.831.123-2.16.087-3.055l-.113-.956-.127-.683a1.868 1.868 0 0 0-.176-.401c-.818-1.309-1.942.532-2.458.808-.256.137-.526.138-.807.116-.411-.033-1.016-.135-1.366-.35-.358-.22-.709-.663-1.092-.745-.615-.132-2.383 1.325-2.648-.113-.028-.137-.009-.27 0-.407.048-.668.15-1.42-.161-2.043-.413-.826-.59-.283-1.333-2.054-.104-.249-.27-.552-.298-.82-.108-1.036 1.359-1.556 1.627-2.197.204-.392.016-.69 0-1.08-.067-.408.139-1.26.314-1.627.214-.454.57-.6.889-.992.311-.384.458-.899.94-1.104.424-.18.896 0 1.489-.353.616-.368.832-.84 1.639-1.268 1.014-.236 1.92.33 2.731.387z" style="stroke-width: 0.13656; fill: rgb(237, 236, 236); stroke: rgb(237, 236, 236);"/>
  <path d="M335.75 115.99c.804.081 1.248-.364 2 .267.353.297.885.937 1.068 1.363.213.496.252 1.316.781 1.63.725.43 1.09-.983 2.016-.702.676.207.661 1.048.65 1.615-.035 1.818-1.24 3.274-1.084 4.449.137 1.036 1.6 1.203 1.525 2.544-.048.84-.818.892-1.695 1.766-1 1-1.363 1.919-1.9 3.165-.164.383-.37 1.258-.614 1.495-.485.472-1.168.002-1.787.22-.469.163-.694.576-1.133.84-.827.496-2.643.652-3.137 1.596-.157.372-.027 1.99 0 2.527-.029.413.003 1.175-.234 1.518-.105.154-.241.253-.432.253-.72 0-.635-1.142-.635-1.612v-2.226c-.033-1.741-1.004-1.577-2.225-2.1l-1.431-.741c-.519-.275-1.077-.77-1.59-.906-.64-.172-1.708.101-2.068-.345-.433-.536.185-1.945-.117-2.744-.25-.67-.94-1.093-1.287-1.75-.188-.354-.631-1.83-.633-2.225l.148-1.272c-.068-.614-.585-1.01-.582-1.59.005-.686.64-.91 1.157-1.907.445-.859.83-2.145 1.507-2.829 1.03-1.04 1.945-.973 2.988-1.416.493-.209 1.345-.996 2.544-1.468.484-.19 1.07-.187 1.59-.262 1.67-.197 3.739.762 4.61.847z" style="stroke-width: 0.15898; fill: rgb(120, 117, 117); stroke: rgb(120, 117, 117);"/>
  <path d="m942.38 122.73.748-.056 2.458.346c.43.121.652.4 1.068.527l.962.116c.32.083 1.235.696 1.473.938.253.256.75 1.117.81 1.473.007.35-.236.732 0 1.005.27.254.692.09 1.126.326.395.215.525.583.799.91.42.502 1.153.948 1.108 1.71-.058.98-1.943.542-2.306 1.502-.312.824 1.745.699 1.41 1.701-.256.763-1.388.615-1.963.833l-1.389.794c-.327.146-.689.426-1.049.212-.635-.378-.488-1.17-.618-1.512-.117-.31-.402-.533-.684-.692-.21-.119-.493-.245-.734-.141-.416.178-.98.986-1.038 1.443l-.537 2.737c-.082.382.067.83.066 1.247 0 .233.022.55-.11.746-.382.112-.593.191-1.03-.111-.223-.475.04-.697.105-1.236.022-.651.096-1.691.069-2.391l-.089-.748-.1-.534a1.458 1.458 0 0 0-.137-.314c-.64-1.024-1.52.416-1.924.632-.2.107-.41.108-.631.091-.322-.026-.795-.106-1.069-.275-.28-.172-.554-.518-.854-.582-.481-.104-1.865 1.037-2.072-.089-.022-.107-.006-.211 0-.318.037-.523.117-1.11-.126-1.599-.323-.646-.462-.22-1.043-1.607-.082-.194-.21-.431-.233-.64-.085-.812 1.063-1.219 1.272-1.72.16-.307.013-.54 0-.845-.052-.32.11-.986.246-1.273.168-.356.447-.47.696-.777.243-.3.359-.703.736-.863.331-.141.701-.001 1.165-.277.482-.287.65-.657 1.282-.992.794-.184 1.502.258 2.137.303z" style="stroke-width: 0.10685; stroke: rgb(237, 236, 236); fill: rgb(237, 236, 236);"/>
  <path d="m923.51 127.56-.044-14.126s1.208-.161 1.853-.913V75.097h-12.783v37.423c.644.752 1.852.913 1.852.913v13.933c2.113 1.833 7.007 1.384 9.122.193z" style="fill-rule: evenodd; stroke-width: 0.12958px; fill: rgb(237, 236, 236); stroke: rgb(237, 236, 236);" transform="translate(8.541 12.582)"/>
  <path d="m916.39 75.118-.04-19.625h5.087l.014 19.62-5.061.005z" style="fill-rule: evenodd; stroke-width: 0.12958px; fill: rgb(237, 236, 236); stroke: rgb(237, 236, 236);" transform="translate(8.541 12.582)"/>
  <path d="M913.07 71.724v1.386h11.732v-1.405l-11.732.019zM913.12 67.775v1.386h11.732v-1.405l-11.732.019zM913.05 63.827v1.386h11.732v-1.405l-11.732.019zM913.16 59.859v1.386h11.732V59.84l-11.732.019zM913.07 55.835v1.386h11.732v-1.405l-11.732.019zM921.53 55.471s3.19-.114 3.797-.532l-.02-1.006s-.19-.19-.759-.284c-.057.019-.038-.247-.038-.247h.532l.247-.247v-4.024h.341s.213-.117.287-.311V43.59s-.282-.329-.651-.443c.02-.02 0-3.564 0-3.564-.405-.662-2.228-.903-3.45-1.067l.007-.275s1.06-.074 1.248-.302c.02 0 .39-.329.41-.463.013-.027 0-2.45 0-2.45-.143-.247-1.236-.678-2.235-.745l-4.652.004c-1 .067-2.092.498-2.235.745 0 0-.013 2.422 0 2.45.02.134.39.462.41.462.188.229 1.248.303 1.248.303l.007.275c-1.222.163-3.046.404-3.45 1.067 0 0-.02 3.544 0 3.564-.369.114-.65.443-.65.443v5.228c.073.195.286.311.286.311h.341v4.024l.247.247h.532s.019.266-.038.247c-.57.095-.76.285-.76.285l-.019 1.006c.608.418 3.797.531 3.797.531l5.22-.003z" style="fill-rule: evenodd; stroke-width: 0.12958px; fill: rgb(237, 236, 236); stroke: rgb(237, 236, 236);" transform="translate(8.541 12.582)"/>
  <path d="M913.43 71.696v-.268h-.698l-.12.402-.806.014-.161-.752v-.779l.147-.51.82-.027.2.269v1.14l.913.028.014.443-.309.04zM913.2 67.707v-.268h-.698l-.12.402-.806.014-.161-.752v-.779l.147-.51.82-.027.2.269v1.14l.913.028.014.443-.309.04zM913.36 63.817v-.268h-.698l-.12.402-.806.014-.161-.752v-.779l.147-.51.82-.027.2.269v1.14l.913.028.014.443-.309.04zM914.55 59.834v-.268h-.698l-.12.402-.806.014-.161-.752v-.779l.147-.51.82-.027.2.269v1.14l.913.028.014.443-.309.04zM924.01 65.669h-.966s-1.168.846-.04 2.014c.026-.04 1.261.053 1.261.053s1.074-1.248-.255-2.067zM924.08 69.779h-.966s-1.168.846-.04 2.014c.026-.04 1.261.053 1.261.053s1.074-1.248-.255-2.067z" style="fill-rule: evenodd; stroke-width: 0.12958px; fill: rgb(237, 236, 236); stroke: rgb(237, 236, 236);" transform="translate(8.541 12.582)"/>
  <path d="M924.06 61.913h-.777s-.94.851-.033 2.026c.022-.04 1.015.054 1.015.054s.864-1.256-.205-2.08z" style="fill-rule: evenodd; stroke-width: 0.11657px; fill: rgb(237, 236, 236); stroke: rgb(237, 236, 236);" transform="translate(8.541 12.582)"/>
  <path d="M922.91 58.588h-.695s-.84.854-.03 2.032c.02-.04.908.054.908.054s.773-1.26-.183-2.086z" style="fill-rule: evenodd; stroke-width: 0.1104px; fill: rgb(237, 236, 236); stroke: rgb(237, 236, 236);" transform="translate(8.541 12.582)"/>
  <path d="M915.24 62.239h-.851s-1.029.849-.036 2.021c.024-.04 1.112.054 1.112.054s.945-1.253-.225-2.075z" style="fill-rule: evenodd; stroke-width: 0.12184px; fill: rgb(237, 236, 236); stroke: rgb(237, 236, 236);" transform="translate(8.541 12.582)"/>
  <path d="M915.51 66.061h-.965s-1.165.906-.04 2.157c.027-.043 1.26.058 1.26.058s1.071-1.338-.255-2.215z" style="fill-rule: evenodd; stroke-width: 0.13399px; fill: rgb(237, 236, 236); stroke: rgb(237, 236, 236);" transform="translate(8.541 12.582)"/>
  <path d="M915.32 69.91h-.917s-1.108.847-.038 2.017c.025-.04 1.197.053 1.197.053s1.019-1.25-.242-2.07z" style="fill-rule: evenodd; stroke-width: 0.12633px; fill: rgb(237, 236, 236); stroke: rgb(237, 236, 236);" transform="translate(8.541 12.582)"/>
  <path d="m917.09 24.305 3.692.05-.12 1.36h-3.599l.027-1.41z" style="fill-rule: evenodd; stroke-width: 0.14293px; fill: rgb(237, 236, 236); stroke: rgb(237, 236, 236);" transform="translate(8.541 12.582)"/>
  <path d="M920.52 27.132h-3.07l.002 1.365h3.044l.024-1.365z" style="fill-rule: evenodd; stroke-width: 0.18691px; stroke: rgb(237, 236, 236); fill: rgb(237, 236, 236);" transform="translate(8.541 12.582)"/>
  <path d="M917.64 30.052h2.586v1.499h-2.579l-.007-1.499z" style="fill-rule: evenodd; stroke-width: 0.20135px; stroke: rgb(237, 236, 236); fill: rgb(237, 236, 236);" transform="translate(8.541 12.582)"/>
  <path d="M918.02 32.736h1.863v.829h-1.876l.013-.829z" style="fill-rule: evenodd; stroke-width: 0.19996px; fill: rgb(237, 236, 236); stroke: rgb(237, 236, 236);" transform="translate(8.541 12.582)"/>
  <path d="m917.9 34.355-.883-9.985 3.816.057-.892 9.938-2.041-.01z" style="stroke-width: 0.32396; fill: none; stroke: rgb(237, 236, 236);" transform="translate(8.541 12.582)"/>
  <path d="M919.02 24.237v-6.853" style="stroke-width: 0.311; fill: none; stroke: rgb(237, 236, 236);" transform="translate(8.541 12.582)"/>
  <path d="M894.59 139.64c-.166.595-.893 1.43-.957 1.48-5.033 4.001-18.34 4.676-25.574-.495-.285-.205-1.568-1.823-1.568-1.866-1.3-11.123-9.132-79.204 12.66-105.56-.157-.156 2.349-.156 2.349-.156 22.97 23.147 14.207 106.47 13.09 106.6z" style="fill-rule: evenodd; stroke-width: 0.16353; fill: rgb(237, 236, 236); stroke: rgb(237, 236, 236);"/>
  <path d="M747.83 139.68v-2.31l.257-.256-.013-7.506s-.372-.462-.295-.54c-.026-.09-.026-.577-.026-.577h.372v-7.006l-.346-.243v-.218l.346.012-.346-.41v-.385l-.455-.263v-.34l.429-.295v-.45l.295-.205v-1.642h-.27l-.148-.258v-.243l.158-.157h1.35v1.21h.27v.205h.552v-.205h.757v.256h.436v.244h.372v.154l.265.07v-.904l.21-.385.18-.18h1.809v.206h2.117v-.27h1.989v.257h5.184v-.308h1.963v.308h5.248v-.347h1.924v.347h5.056v-.334h2.297v.295h1.835v-.282h-.283v-.5h-.205v-.424h.565v-3.24h-.372v-.917h.166v-7.705l-.449-.45v-.39l.59-.225v-1.007l-.162-.044v-.258l.714-.449 1.052-.314h1.13v-2.926l-.431-.331v-.544h.443v-.177h.187l-.035-.134h-.146l-.174-.174v-.2l.492-.284v-.645h.217c.354-2.983 2.123-8.739 7.428-10.611v-.41h.23v-.253s-.411.043-.469-.235c0-.073-.022-.305.244-.412l.161-.012v-.866h.135v-.468h.16v.423h.34V81.8h-.186v-.449h.36v-3.26l-.398-.32v-.256h.433v-1.022l.408.408v.499h.318v-1.851h-.417v-.327h.236v-.998s.535-.844.861-.844v-.308l-.28-.145v-.145h.308v-.785h.237s-.202-.138-.224-.27l-.006-.3s.083-.148.18-.155c.108-.007.128-.006.128-.006v-.167c-.926-.454-.199-1.32-.006-1.23l.025-1.6.155-.865.155.866.025 1.6c.193-.09.92.775-.006 1.229v.167s.02-.001.129.006c.096.007.18.154.18.154l-.007.302c-.022.131-.224.27-.224.27h.237v.784h.309v.145l-.281.145v.308c.326 0 .862.844.862.844v.998h.236v.327h-.418v1.85h.318V76.9l.408-.408v1.022h.433v.256l-.398.32v3.26h.36v.45h-.186v.743h.34v-.423h.16v.468h.135v.866l.162.012c.265.107.243.34.243.412-.058.278-.469.235-.469.235v.254h.23v.409c5.305 1.873 7.074 7.628 7.428 10.61h.217v.646l.492.284v.2l-.174.174h-.145l-.036.134h.187V97h.443v.544l-.43.331v2.926h1.129l1.052.314.714.45v.257l-.162.044v1.007l.59.224v.392l-.45.449v7.705h.168v.917h-.372v3.24h.564v.424h-.205v.5h-.283v.201h2.555v-.373h2.296v.373h5.089v-.325h1.97v.364h5.29v-.354h2.01v.334h4.66v-.32h2.53v.297h10.12v-1.853l-.297-.223-.014-1.197.305-.136v-.46h-.298v-1.542h.9v-.609l.443.007-.278-.373-.143-.172-.02-.383.322.008v-.487h.142v-4.14l-.243-.14-.364-.177v-.59h.607v-.899h.176v-.629H847.121v-.78h-.181v-.268h.182v-.335h.287v.325h.162v.278h-.162v.45h.23l.267-.431v-1.359h-.2v-.444h.305v-.455h.23v-.316h-.22v-.344h.2v-.325h.154l-.033-.123h.195l-.017-.588.284-.385v-.75l.518-.842h.105s.048-.46.278-.498l.017-.336c-.203-.027-.295-.395-.011-.517.002 0-.01-.31-.007-.311-.33-.103-.331-.645.12-.66.452.015.45.558.121.66.002.002-.009.313-.007.312.284.122.192.49-.011.517l.017.336c.23.038.278.497.278.497h.105l.518.842v.75l.284.386-.017.587h.195l-.033.124h.153v.325h.201v.344h-.22v.316h.23v.455h.306v.444h-.201v1.359l.268.43h.23v-.45h-.163v-.277h.162v-.325h.287v.335h.182v.267h-.182v.781H852.97v.63h.176v.899h.607v.589l-.364.177-.243.14v4.14h.142v.487l.321-.008-.019.383-.143.172-.278.373.443-.007v.609h.9v1.542h-.298v.46l.305.135-.014 1.198-.297.223v1.495h1.218v-.347s-.22-.19-.2-.334l.004-.589s.048-.196.153-.248c-.014-.015 0-1.287 0-1.287l.139-.134s-.072-.262.164-.272c-.013 0 .249-.008.166.311 0-.005.24.138.24.138v.344h-.101v.149h.162l-.005 1.181h-.153v2.954l.298.19v1.007h-.149v.589h-.162v5.547h.474v.913h.318v.616h-.156v.277h-.474v.906h.183v.65h-.176v.568h-.162v7.103h.311v.29h.17v.17h.155v2.414l-108.79.01z" style="fill-rule: evenodd; stroke-width: 0.015306; fill: rgb(237, 236, 236); stroke: rgb(237, 236, 236);"/>
  <g style="fill:#1a1a1a">
    <path d="M116.96 163.49a5.537 2.244 0 1 1-11.073 0 5.537 2.244 0 1 1 11.073 0z" style="fill: rgb(120, 117, 117);" transform="matrix(.13773 0 0 .28748 688.98 43.09)"/>
    <path d="m90.91 173.99.565-23.94.901 23.899-1.466.041z" style="fill-rule: evenodd; stroke-width: 2.4423; fill: rgb(26, 26, 26); stroke: rgb(120, 117, 117);" transform="translate(696.459 74.738) scale(.08551)"/>
    <path d="M94.969 184.77c-.998 4.07 1.655 29.059 2.03 29.155 30.648 7.812 34.767 34.795 34.767 34.795l8.313.072-.01 15.229h-8.734l-.484 115.8-77.612-.143.158-114.8h-8.34l-.008-16.206 7.917-.071s1.954-28.64 32.588-33.794c.381-.064 4.09-25.335 3.091-29.405l6.323-.632z" style="fill-rule: evenodd; fill: rgb(120, 117, 117);" transform="translate(696.459 74.738) scale(.08551)"/>
  </g>
  <path d="M116.96 163.49a5.537 2.244 0 1 1-11.073 0 5.537 2.244 0 1 1 11.073 0z" style="stroke-width: 0.88388; fill: rgb(120, 117, 117); stroke: rgb(120, 117, 117);" transform="matrix(.13773 0 0 .28748 678.13 39.488)"/>
  <path d="m90.91 173.99.565-23.94.901 23.899-1.466.041z" style="fill-rule: evenodd; stroke-width: 2.4423; fill: rgb(120, 117, 117); stroke: rgb(120, 117, 117);" transform="translate(685.609 71.136) scale(.08551)"/>
  <path d="M94.969 184.77c-.998 4.07 1.655 29.059 2.03 29.155 30.648 7.812 34.767 34.795 34.767 34.795l8.313.072-.01 15.229h-8.734l-.484 115.8-77.612-.143.158-114.8h-8.34l-.008-16.206 7.917-.071s1.954-28.64 32.588-33.794c.381-.064 4.09-25.335 3.091-29.405l6.323-.632z" style="fill-rule: evenodd; stroke-width: 0.82763px; fill: rgb(120, 117, 117); stroke: rgb(120, 117, 117);" transform="translate(685.609 71.136) scale(.08551)"/>
  <path d="M116.96 163.49a5.537 2.244 0 1 1-11.073 0 5.537 2.244 0 1 1 11.073 0z" style="stroke-width: 0.88388; stroke: rgb(120, 117, 117); fill: rgb(120, 117, 117);" transform="matrix(.13773 0 0 .28748 718.419 39.442)"/>
  <path d="m723.36 73.032.048-2.047.077 2.043-.125.004z" style="fill-rule: evenodd; stroke-width: 0.20884; fill: rgb(0, 0, 0); stroke: rgb(120, 117, 117);" transform="translate(10.309 12.936)"/>
  <g style="fill:#1a1a1a">
    <path d="M116.96 163.49a5.537 2.244 0 1 1-11.073 0 5.537 2.244 0 1 1 11.073 0z" style="fill: rgb(120, 117, 117);" transform="matrix(.13261 0 0 .26406 709.487 46.695)"/>
    <path d="m90.91 173.99.565-23.94.901 23.899-1.466.041z" style="fill-rule: evenodd; stroke-width: 2.3223; fill: rgb(26, 26, 26); stroke: rgb(120, 117, 117);" transform="matrix(.08233 0 0 .07854 716.689 75.764)"/>
    <path d="M94.969 184.77c-.998 4.07 1.655 29.059 2.03 29.155 30.648 7.812 34.767 34.795 34.767 34.795l8.313.072-.01 15.229h-8.734l-.484 115.8-77.612-.143.158-114.8h-8.34l-.008-16.206 7.917-.071s1.954-28.64 32.588-33.794c.381-.064 4.09-25.335 3.091-29.405l6.323-.632z" style="fill-rule: evenodd; fill: rgb(120, 117, 117);" transform="matrix(.08233 0 0 .07854 716.689 75.764)"/>
  </g>
  <path d="M723.73 74.06c-.085.348.141 2.485.173 2.493 2.621.668 2.973 2.975 2.973 2.975l.711.006v1.303h-.747l-.042 9.902-6.636-.012.013-9.817h-.713v-1.386l.676-.006s.167-2.449 2.787-2.89c.033-.005.35-2.166.264-2.514l.54-.054z" style="fill-rule: evenodd; stroke-width: 0.070771px; fill: rgb(120, 117, 117); stroke: rgb(120, 117, 117);" transform="translate(10.309 12.936)"/>
  <path d="M733.5 91.057s.003-1.433.001-1.428c-.187-.13-1.23-.21-1.23-.21v1.78l-1.102-.14-.015-1.682a10.764 10.764 0 0 0-1.596-.164l.012 1.616-1.187-.14v-1.517c-.876-.026-1.507-.033-1.507-.033l.021 1.511-1.72-.009h-1.528v-1.605h-2.374l.022 1.623-1.506-.006v-1.605l-2.336.007-.005 1.622-1.516-.008v-1.605h-2.374l.01 1.628-1.496-.01v-1.605H709.7l.02 1.62-1.506-.001V89.09h-2.374l.022 1.625-1.506-.004v-1.605h-2.374l.01 1.62-1.495-.001V89.12h-2.374l.016 1.624-1.5-.005v-1.605h-2.374l.022 1.623-1.506-.007v-1.604h-2.374v1.594h-1.512v-1.554h-9.043l.074 26.488c-.08.016 43.942-.14 44.022-.141 0 0 9.023-.128 9.537-1.228.03-.48.015-23.217.014-23.25z" style="fill-rule: evenodd; stroke-width: 0.06956px; stroke: rgb(120, 117, 117); fill: rgb(120, 117, 117);" transform="translate(10.309 12.936)"/>
  <path d="m676.97 120.74-.01-2.864s-.563-.095-.53-.307c.03-.212.35-.058.445-.318.304-.834-.149-1.443-.96-1.456-.897.003-1.297.628-.992 1.462.094.26.413.106.445.318.032.212-.53.307-.53.307l-.027 2.71v.16l2.159-.012z" style="fill-rule:evenodd;stroke:#000;stroke-width:.23998px;fill:#000" transform="translate(10.309 12.936)"/>
  <path d="M516.67 126.67c-2.216 2.256-20.387 3.88-24.773.287.027.013-.86-2.46-.86-2.46s-1.286-.214-1.38-.51c.001.063-.195-1.78-.195-1.78s-1.634-.099-1.836-.323c-.006.01-.209-3.168-.209-3.168s-1.147-.052-1.312-.295c-.013.04-.013-1.859-.013-1.859.017.011-.892.096-1.195-.228-.025.002-.06-2.624-.06-2.624s-.65.069-.893-.189c-.012-.119-.032-2.54-.032-2.54-.79-.052-.683-.375-.683-.375l.083-2.324c-.25-.04-.6-.326-.56-.45l.142-2.333c-.375-.171-.428-.572-.428-.645l.236-2.129s-.021.043-.236-.117c-.095-.083.18-1.754.292-1.826.386-.483.017.098-.216-.608-.026-.155.325-2.316.756-2.52.214-.06 3.252-.61 4.902-.648-.049.02 3.852 0 3.852 0s6.541.711 9.375 2.246c-.213-.152 4.678 2.539 5.415 3.05-.02-.018 5.765 4.503 7.522 8.013-.055-.107 2.168 3.94 2.553 5.547-.017-.083.718 1.94 1.108 3.775.243 1.146.336 1.85.429 2.55.055.053-1.537.95-1.723.837l-.027 2.505v.248l-.034.893z" style="fill-rule: evenodd; fill: rgb(120, 117, 117);"/>
  <g style="fill:#0d0d0d">
    <path d="M453.49 123.69s-16.951.585-17.716.09c-.09.045-1.553 1.44-2.161 2.679.022-.068-.765-.09-.765-.09s.597-1.74.453-2.249c-.047.064-2.897-.589-3.74-.684.063.031-.796.127-1.114 2.626.015-.096-.733-.016-.733-.016s0-2.5-.827-2.85c-.032-.015-10.26-1.511-13.773-2.291 0 0-2.416 1.002-3.18 1.957l-.382-.159s2.022-2.228 1.942-2.945c-.048-.015.07-.683-1.13-.542-.017.011-2.887 1.953-3.258 2.459l-.315-.242s1.767-3.022 1.069-3.72c-.022-.022-1.667-2.061-2.685-1.886.063-.048-4.346 1.369-4.346 1.369l-.032-.263s2.03-1.218 1.966-1.297c0 0-2.174.479-2.185.659-.034-.158-.045-.203-.045-.203l3.568-3.027c.337-.316 4.901-3.562 11.585-6.665.66-.307 9.41-5.248 26.338-5.313-.096 0 18.917-1.056 35.26 12 0 0 1.283 1.396 2.34 2.296.046.135-.157.068-.157.068s-2.881-1.419-3.399-.45c-.022 0-.675 1.53-.067 2.7.607 1.171 1.823 2.882 1.823 2.882l-.158.09s-2.588-2.881-3.804-2.544c.113.045-1.306.203 1.913 3.377.023 0-.202.203-.202.203s-2.904-2.32-4.03-2.162c-.945.226-10.062 2.68-10.062 2.68s-.788 1.733-.315 2.97c-.09.023-.473.158-.473.158s-1.193-2.52-1.598-2.52c-.878.09-3.399.72-3.399.72s.428 1.823.81 2.296c-.54.022-.54.045-.54.045s-2.116-2.207-2.476-2.207z" style="fill-rule: evenodd; fill: rgb(120, 117, 117);" transform="translate(8.541 10.991)"/>
    <path d="m415.98 106.43-3.647-13.327-.135-2.611 1.306 2.521 3.917 12.606-1.441.81z" style="fill-rule: evenodd; fill: rgb(120, 117, 117);" transform="translate(8.541 10.991)"/>
    <path d="m414.27 95.083-.27-3.557 1.305 2.837 2.972 11.3-.946.316-3.061-10.895zM420.44 104.31l-2.386-11.751-.225-2.701.99 2.566 2.972 11.526-1.351.36zM426.25 102.98l-1.126-7.496.045-3.422 1.126 3.287 1.17 7.609-1.215.022zM428.71 102.3l-1.019-9.774.096-2.77.828 3.089 1.177 9.423-1.082.032zM439.08 101.52l.105-9.342.35-2.706.541 2.61.128 9.424-1.124.014zM442.37 101.16l.16-5.125.763-3.757.637 3.98-.127 5.03-1.433-.128zM449.69 101.6l.987-9.01.732-2.801.191 3.215-.955 8.787-.955-.191zM457.43 103.13l1.655-7.672 1.274-3.47-.319 3.852-1.432 7.767-1.178-.477z" style="fill-rule: evenodd; fill: rgb(120, 117, 117);" transform="translate(8.541 10.991)"/>
    <path d="m459.53 103.73 2.197-10.601.19-2.993-1.05 3.12-2.292 10.251.955.223zM464.37 105.45l3.406-11.238 1.274-2.674-.287 3.31-3.024 11.334-1.369-.733z" style="fill-rule: evenodd; fill: rgb(120, 117, 117);" transform="translate(8.541 10.991)"/>
  </g>
  <path d="m478.27 275.92 2.082.047 1.823-10.113.845-3.66-1.192-.087-.112-.774 1.494-.05 1.176-7.345.55-4.032.48 4.125 1.233 7.253 1.194.044.125.835-1.224-.09 3.42 21.077.237 146.09-45.285-.005v-146.1l3.48-21.444-1.082.1.089-.715 1.091-.088 1.083-5.735.677-4.81.387 4.844 1.04 5.449 1.087.077-.045.58-.903.095 1.086 4.35 3.352 10.054 2.078-.016 9.505-33.832 10.229 33.871zM758.39 275.75h2.879l1.823-10.207.845-3.66-1.192-.087-.112-.773 1.494-.051 1.176-7.345.55-4.032.48 4.125 1.233 7.253 1.194.044.125.835-1.224-.09 3.42 21.077.237 146.09-45.285-.005v-146.1l3.48-21.444-1.082.1.088-.715 1.092-.088 1.083-5.735.677-4.81.387 4.844 1.04 5.449 1.087.077-.045.581-.903.094 1.086 4.35 2.868 10.507 2.672.015 9.395-34.317 9.431 34.012z" style="fill-rule: evenodd; stroke-width: 1px; fill: rgb(237, 236, 236); stroke: rgb(237, 236, 236);" transform="translate(424.43 27.495) scale(.24294)"/>
  <path d="m726.11 307.05-107.42.032v-2.063s.656-4.156-1.938-3.937c.094-.031-2.343-.375-2.124 3.406l-5.22-.062-.062-3.22s3.563-4.187-1.219-5.687c-2.427.981-2.41 3.298-1.002 5.375.667.983.254 2.525.252 3.594l-5.312.031s.168-3.38-1.313-3.375c0 0-3.278-.83-2.528 4.858h-108.38v16.03h241.57v-15.026l-5.303.044z" style="fill-rule: evenodd; stroke-width: 1px; fill: rgb(237, 236, 236); stroke: rgb(237, 236, 236);" transform="translate(424.43 27.495) scale(.24294)"/>
  <path d="M436.88 160.62c-69.084 68.985-103.65 100.94-192.04 103.69 0 0-69.203 3.958-108.01-25.532v.177" style="stroke-width: 3.3; fill: none; stroke: rgb(237, 236, 236);" transform="translate(427.285 66.97) scale(.24294)"/>
  <path d="M435.81 157.03s-98.42 91.418-191.26 101.94c0 0-48.299 4.09-109.05-26.411" style="stroke-width: 3.3; fill: none; stroke: rgb(237, 236, 236);" transform="translate(427.285 66.97) scale(.24294)"/>
  <path d="m410.44 178.56-7.375 15.5M399.31 185.81l15-1M401.31 186.31l-5.5 13.5.5-.375M373.25 206.62l15.5-1.125M370.06 208.44l-14.375 22.875M353 219.62l21 1.125M350.25 220.38l-14 23.62M334.88 228.5l18.375 7M331.62 230.75 317 252.38M316 237.75l18.62 8.25M314.25 239.12l-16 18.88M297.62 245.88l16.75 7.375M291.88 248.38 279.5 262M278.12 252.5l14.375 6.375M272.88 254.5c-.5 0-11.5 9-11.5 9M260.62 256.62l12.25 5.875M257 258.25l-9 6.5" style="stroke-width: 1px; fill: none; stroke: rgb(237, 236, 236);" transform="translate(427.285 66.97) scale(.24294)"/>
  <path d="m246.75 259.5 12.75 5.375M409.25 187.5v87.75M390.5 193v82.75M371.75 204.75v70.875M352.5 217.75v57.5M333 228.5v46.75M315 236.5V275l.483-.279.017.029M296 244.5v30.75M277.75 251v24.75M258.75 256.25V276" style="stroke-width: 2; fill: none; stroke: rgb(237, 236, 236);" transform="translate(427.285 66.97) scale(.24294)"/>
  <path d="m391.56 193.44 13.94-.88M386.25 196.94l-11.5 20.875" style="stroke-width: 1px; fill: none; stroke: rgb(237, 236, 236);" transform="translate(427.285 66.97) scale(.24294)"/>
  <path d="M222.62 271.38v-17.125M202.75 271.38v-19.625M184 271v-23.625M165.12 270.38v-28.625h.5M146.88 269.62v-35.375" style="stroke-width: 2; fill: none; stroke: rgb(237, 236, 236);" transform="translate(427.285 67.828) scale(.24294)"/>
  <path d="M223.25 259.38 238 256M223.38 254l15.75 6.875M203.5 257.88l20.5-2.75M203.75 251.62l19.25 9.5v-.125M184.25 255.12l18-3M184.5 247.62l17.25 11.25M165.5 250.75l18.25-3.5M165.62 241.5l18 13.75M147.12 243.12l17.5-1.5M147.62 234.12l16.75 15.75" style="stroke-width: 1px; fill: none; stroke: rgb(237, 236, 236);" transform="translate(427.285 67.828) scale(.24294)"/>
  <path d="M436.88 160.62c-69.084 68.985-103.65 100.94-192.04 103.69 0 0-69.203 3.958-108.01-25.532" style="stroke-width: 3.3; fill: none; stroke: rgb(237, 236, 236);" transform="matrix(-.24294 0 0 .24294 716.806 67.067)"/>
  <path d="M435.81 157.03s-98.42 91.418-191.26 101.94c0 0-48.299 4.09-109.05-26.411" style="stroke-width: 3.3; fill: none; stroke: rgb(237, 236, 236);" transform="matrix(-.24294 0 0 .24294 716.806 67.067)"/>
  <path d="m410.44 178.56-7.375 15.5M399.31 185.81l15-1M401.31 186.31l-5.5 13.5.5-.375M373.25 206.62l15.5-1.125M370.06 208.44l-14.375 22.875M353 219.62l21 1.125M350.25 220.38l-14 23.62M334.88 228.5l18.375 7M331.62 230.75 317 252.38M316 237.75l18.62 8.25M314.25 239.12l-16 18.88M297.62 245.88l16.75 7.375M291.88 248.38 279.5 262M278.12 252.5l14.375 6.375M272.88 254.5c-.5 0-11.5 9-11.5 9M260.62 256.62l12.25 5.875M257 258.25l-9 6.5" style="stroke-width: 1px; fill: none; stroke: rgb(237, 236, 236);" transform="matrix(-.24294 0 0 .24294 716.806 67.067)"/>
  <path d="m246.75 259.5 12.75 5.375M409.25 187.5v87.75M390.5 193v82.75M371.75 204.75v70.875M352.5 217.75v57.5M333 228.5v46.75M315 236.5V275l.483-.279.017.029M296 244.5v30.75M277.75 251v24.75M258.75 256.25V276" style="stroke-width: 2; fill: none; stroke: rgb(237, 236, 236);" transform="matrix(-.24294 0 0 .24294 716.806 67.067)"/>
  <path d="m391.56 193.44 13.94-.88M386.25 196.94l-11.5 20.875" style="stroke-width: 1px; fill: none; stroke: rgb(237, 236, 236);" transform="matrix(-.24294 0 0 .24294 716.806 67.067)"/>
  <path d="M222.62 271.38v-17.125M202.75 271.38v-19.625M184 271v-23.625M165.12 270.38v-28.625h.5M146.88 269.62v-35.375" style="stroke-width: 2; fill: none; stroke: rgb(237, 236, 236);" transform="matrix(-.24294 0 0 .24294 716.806 67.925)"/>
  <path d="M223.25 259.38 238 256M223.38 254l15.75 6.875M203.5 257.88l20.5-2.75M203.75 251.62l19.25 9.5v-.125M184.25 255.12l18-3M184.5 247.62l17.25 11.25M165.5 250.75l18.25-3.5M165.62 241.5l18 13.75M147.12 243.12l17.5-1.5M147.62 234.12l16.75 15.75" style="stroke-width: 1px; fill: none; stroke: rgb(237, 236, 236);" transform="matrix(-.24294 0 0 .24294 716.806 67.925)"/>
  <path d="m752.87 504.26-63.12 38.069M755.43 506.38l-59.809 36.941" style="stroke-width: 2.1378; fill: none; stroke: rgb(237, 236, 236);" transform="matrix(-.24294 0 0 .24294 873.14 1.087)"/>
  <path d="m258.52 439.39-.044-11.932s-2.343-.398-2.21-1.282c.133-.883 1.461-.243 1.856-1.325 1.268-3.473-.618-6.01-4-6.065-3.736.012-5.401 2.616-4.134 6.089.396 1.083 1.724.442 1.857 1.326.132.884-2.21 1.281-2.21 1.281l-.11 11.292v.663l8.995-.046zM965.42 439.34l-.044-11.932s-2.343-.398-2.21-1.282c.133-.883 1.461-.243 1.856-1.325 1.268-3.473-.618-6.01-4-6.065-3.736.012-5.401 2.616-4.134 6.089.396 1.083 1.724.442 1.857 1.326.132.884-2.21 1.281-2.21 1.281l-.11 11.292v.663l8.995-.046z" style="fill-rule: evenodd; stroke-width: 1px; stroke: rgb(237, 236, 236); fill: rgb(237, 236, 236);" transform="translate(424.43 27.495) scale(.24294)"/>
  <path d="m118.79 439.48 313.51.045.002-1.778c-.027 0-278.89-.59-313.53-.614l.018 2.347zM118.82 428.69h314.05v5.962H118.82l-.002-5.962z" style="fill-rule: evenodd; stroke-width: 0.90412; stroke: rgb(237, 236, 236); fill: rgb(237, 236, 236);" transform="translate(424.43 27.495) scale(.24294)"/>
  <path d="M769.47 266.3h174.66v6.187H769.3l.177-6.187zM943.86 275.08l-175.06-.222.014 2.067h175.05l.001-1.845z" style="fill-rule: evenodd; stroke-width: 1px; stroke: rgb(237, 236, 236); fill: rgb(237, 236, 236);" transform="matrix(.77923 0 0 .24294 15.173 67.036)"/>
  <path d="M712.38 428.77h73.375v41.5h-73.75l.375-41.5zM431.25 428.77h73.375v41.5h-73.75l.375-41.5z" style="fill-rule: evenodd; stroke-width: 1px; fill: rgb(237, 236, 236); stroke: rgb(237, 236, 236);" transform="translate(424.43 27.495) scale(.24294)"/>
  <path d="m492.4 287.5 94.406-47.051 2.805 5.569-94.464 47.04-2.747-5.558z" style="fill-rule: evenodd; stroke-width: 1px; stroke: rgb(237, 236, 236); fill: rgb(237, 236, 236);" transform="translate(425.856 62.644) scale(.24294)"/>
  <path d="M492.96 315.7c.069.012 57.375-47.433 95.323-66.831l2.65-1.355" style="stroke-width: 3; fill: none; stroke: rgb(237, 236, 236);" transform="translate(425.856 62.644) scale(.24294)"/>
  <path d="m502.99 307.04-9.164-15.88 17.206 6.707-5.576-11.478 16.299 3.88-5.457-11.057 15.133 3.82-4.492-9.416 14.246 2.73-3.802-7.634 11.816 1.62-3.39-5.817 10.79 1.045-2.799-5.024 9.368.568-2.207-4.233 8.537.29-3.152-6.132" style="stroke-width: 2.9; fill: none; stroke: rgb(237, 236, 236);" transform="translate(425.856 62.644) scale(.24294)"/>
  <path d="m492.4 287.5 94.406-47.051 2.805 5.569-94.464 47.04-2.747-5.558z" style="fill-rule: evenodd; stroke-width: 1px; stroke: rgb(237, 236, 236); fill: rgb(237, 236, 236);" transform="matrix(-.24294 0 0 .24294 718.315 62.435)"/>
  <path d="M492.96 315.7c.069.012 57.375-47.433 95.323-66.831l2.65-1.355" style="stroke-width: 3; fill: none; stroke: rgb(237, 236, 236);" transform="matrix(-.24294 0 0 .24294 718.315 62.435)"/>
  <path d="m502.99 307.04-9.164-15.88 17.206 6.707-5.576-11.478 16.299 3.88-5.457-11.057 15.133 3.82-4.492-9.416 14.246 2.73-3.802-7.634 11.816 1.62-3.39-5.817 10.79 1.045-2.799-5.024 9.368.568-2.207-4.233 8.537.29-3.152-6.132" style="stroke-width: 2.9; fill: none; stroke: rgb(237, 236, 236);" transform="matrix(-.24294 0 0 .24294 718.315 62.435)"/>
  <path d="M133.36 346.3c.344-.151.616-.552.616-.97 0-.554-.426-1.003-.95-1.003-.525 0-.95.45-.95 1.003 0 .435.261.805.665.967l-.096 5.622-1.59.023v1.08h.595s.131 1.638-.181 2.843c-4.125 10.75-7.934 12.057-7.934 12.057l-4.649-.045-2.242 4.294-.046 14.728-2.39.026-.033 3.308h2.469v34.494l-2.74 7.094.088 35.473h37.667l-.088-35.939-2.828-7.094v-34.03h2.468l-.033-3.307-2.389-.026-.046-14.728-1.978-4.107-4.1-.142s-3.311-2.029-7.987-12.21c-.12-1.86.014-2.698-.008-2.714l.593.008-.01-1.109h-1.614l-.28-5.596zM1081.4 346.3c.344-.151.616-.552.616-.97 0-.554-.426-1.003-.95-1.003-.525 0-.95.45-.95 1.003 0 .435.261.805.665.967l-.095 5.622-1.591.023v1.08h.595s.131 1.638-.18 2.843c-4.125 10.75-7.935 12.057-7.935 12.057l-4.648-.045-2.243 4.294-.046 14.728-2.39.026-.032 3.308h2.468v34.494l-2.74 7.094.089 35.473h37.667l-.088-35.939-2.828-7.094v-34.03h2.468l-.033-3.307-2.39-.026-.045-14.728-1.978-4.107-4.101-.142s-3.31-2.029-7.986-12.21c-.12-1.86.014-2.698-.01-2.714l.593.008-.011-1.109h-1.613l-.28-5.596z" style="fill-rule: evenodd; stroke-width: 0.20552; fill: rgb(237, 236, 236); stroke: rgb(237, 236, 236);" transform="translate(424.43 27.495) scale(.24294)"/>
  <path d="M405.48 121.66h10.996v-1.574h-1.09v-1.291h-1.25v-2.946l-.764-.44v-4.28l.723-.505v-.505l-.787-.484v-.444l.01-.323s.015-.272-.242-.286c.014-.014.157-.456-.2-.613.043 0-.242-29.632-.242-29.632s-.195-.154-.319-.184c.062-.03.347-2.456 1.032-3.026 0-.051-.003-.104-.003-.104l-.136-.01v-.172l.166-.07v-.142s-.68-.055-.807-.327c-.005-.026-.277-1.377-.958-1.524.032-.003-.48-.005-.535-.004-.056.002-.581.006-.535.007-.56.079-.954 1.498-.959 1.523-.126.272-.807.328-.807.328v.141l.167.07v.172l-.136.01s-.004.053-.003.104c.684.57.97 2.996 1.031 3.026-.123.03-.318.184-.318.184s-.285 29.632-.243 29.632c-.356.157-.214.6-.2.614-.256.014-.242.285-.242.285l.01.324v.443l-.787.485v.504l.723.504v4.28l-.763.442v2.945h-1.251v1.292h-1.09v1.573h10.997" style="fill-rule: evenodd; stroke-width: 0.071779px; stroke: rgb(237, 236, 236); fill: rgb(120, 117, 117);"/>
  <path d="m410.18 72.973-.996-.009s.287-.386.323-.62c.054-.232.368-.277.413-.448 0 .054.269-1.687.386-1.758.116-.072-.108-.099-.108-.099s-.072.188-.188.197c-.108.01-.207-.52-.207-.52l-.009-.592.08-.054.019-.18.287-.062s.117.018.215.107c.01 0 .126-.134.234-.107.098.009.035-.36.035-.36l-.305-.017s.198-.924.655-.987c.01 0-.01-.123.018-.135.083-.033.143-.015.162 0 .013.012.018.189.018.189s.18.125.269.251c-.01-.054.152.251.152.251s.091.012.1.018c.021.018-.002.175-.01.198-.004.012-.224.053-.224.053l-.135.072-.063.036-.017.458.215.107.036.072s.197-.02.323 0c.027.005.143.198.107.386-.018.188.081.475.081.475l.126.288.08.35.189.044.072.135-.01.117-.215.09-.475 2.027-.144-.054.52-2.019s-.116.01-.17-.044c-.054-.054-.287-.593-.278-.71-.018-.017-.09-.026-.09-.026v.242l.063.036-.009 1.14-.134.6-.26.027s-.081.198-.027.252c0 .018.367.036.358.421-.071-.018-1.462.18-1.462.162z" style="fill-rule: evenodd; stroke-width: 0.071779px; stroke: rgb(237, 236, 236); fill: rgb(120, 117, 117);"/>
  <path d="M181.3 45.924a4.34 4.34 0 1 1-8.68 0 4.34 4.34 0 1 1 8.68 0z" style="fill: rgb(237, 236, 236);" transform="translate(268.431 31.214) scale(.52798)"/>
  <path d="M181.3 45.924a4.34 4.34 0 1 1-8.68 0 4.34 4.34 0 1 1 8.68 0z" style="fill: rgb(237, 236, 236);" transform="translate(259.631 32.923) scale(.52798)"/>
  <path d="M181.3 45.924a4.34 4.34 0 1 1-8.68 0 4.34 4.34 0 1 1 8.68 0z" style="fill: rgb(237, 236, 236);" transform="translate(252.561 35.674) scale(.52798)"/>
  <path d="M181.3 45.924a4.34 4.34 0 1 1-8.68 0 4.34 4.34 0 1 1 8.68 0z" style="fill: rgb(237, 236, 236);" transform="translate(245.981 39.882) scale(.52798)"/>
  <path d="M181.3 45.924a4.34 4.34 0 1 1-8.68 0 4.34 4.34 0 1 1 8.68 0z" style="fill: rgb(237, 236, 236);" transform="translate(240.591 45.114) scale(.52798)"/>
  <path d="M181.3 45.924a4.34 4.34 0 1 1-8.68 0 4.34 4.34 0 1 1 8.68 0z" style="fill: rgb(237, 236, 236);" transform="translate(236.221 51.318) scale(.52798)"/>
  <path d="M181.3 45.924a4.34 4.34 0 1 1-8.68 0 4.34 4.34 0 1 1 8.68 0z" style="fill: rgb(237, 236, 236);" transform="translate(232.981 58.439) scale(.52798)"/>
  <path d="M181.3 45.924a4.34 4.34 0 1 1-8.68 0 4.34 4.34 0 1 1 8.68 0z" style="fill: rgb(237, 236, 236);" transform="translate(231.261 65.991) scale(.52798)"/>
  <path d="M181.3 45.924a4.34 4.34 0 1 1-8.68 0 4.34 4.34 0 1 1 8.68 0z" style="fill: rgb(237, 236, 236);" transform="translate(230.721 73.651) scale(.52798)"/>
  <path d="M181.3 45.924a4.34 4.34 0 1 1-8.68 0 4.34 4.34 0 1 1 8.68 0z" style="fill: rgb(237, 236, 236);" transform="translate(232.011 81.527) scale(.52798)"/>
  <path d="M181.3 45.924a4.34 4.34 0 1 1-8.68 0 4.34 4.34 0 1 1 8.68 0z" style="fill: rgb(237, 236, 236);" transform="translate(234.491 88.864) scale(.52798)"/>
  <path d="M181.3 45.924a4.34 4.34 0 1 1-8.68 0 4.34 4.34 0 1 1 8.68 0z" style="fill: rgb(237, 236, 236);" transform="translate(238.651 96.092) scale(.52798)"/>
  <path d="M181.3 45.924a4.34 4.34 0 1 1-8.68 0 4.34 4.34 0 1 1 8.68 0z" style="fill: rgb(237, 236, 236);" transform="translate(244.851 102.566) scale(.52798)"/>
  <path d="M181.3 45.924a4.34 4.34 0 1 1-8.68 0 4.34 4.34 0 1 1 8.68 0z" style="fill: rgb(237, 236, 236);" transform="translate(251.811 107.475) scale(.52798)"/>
  <path d="M181.3 45.924a4.34 4.34 0 1 1-8.68 0 4.34 4.34 0 1 1 8.68 0z" style="fill: rgb(237, 236, 236);" transform="translate(260.901 110.981) scale(.52798)"/>
  <path d="M181.3 45.924a4.34 4.34 0 1 1-8.68 0 4.34 4.34 0 1 1 8.68 0z" style="fill: rgb(237, 236, 236);" transform="translate(271.311 111.842) scale(.52798)"/>
  <path d="M181.3 45.924a4.34 4.34 0 1 1-8.68 0 4.34 4.34 0 1 1 8.68 0z" style="fill: rgb(237, 236, 236);" transform="translate(280.371 111.332) scale(.52798)"/>
  <path d="M181.3 45.924a4.34 4.34 0 1 1-8.68 0 4.34 4.34 0 1 1 8.68 0z" style="fill: rgb(237, 236, 236);" transform="translate(289.891 108.176) scale(.52798)"/>
  <path d="M181.3 45.924a4.34 4.34 0 1 1-8.68 0 4.34 4.34 0 1 1 8.68 0z" style="fill: rgb(237, 236, 236);" transform="translate(297.821 102.943) scale(.52798)"/>
  <path d="M181.3 45.924a4.34 4.34 0 1 1-8.68 0 4.34 4.34 0 1 1 8.68 0z" style="fill: rgb(237, 236, 236);" transform="translate(303.761 96.632) scale(.52798)"/>
  <path d="M181.3 45.924a4.34 4.34 0 1 1-8.68 0 4.34 4.34 0 1 1 8.68 0z" style="fill: rgb(237, 236, 236);" transform="translate(308.131 89.673) scale(.52798)"/>
  <path d="M181.3 45.924a4.34 4.34 0 1 1-8.68 0 4.34 4.34 0 1 1 8.68 0z" style="fill: rgb(237, 236, 236);" transform="translate(310.881 82.013) scale(.52798)"/>
  <path d="M181.3 45.924a4.34 4.34 0 1 1-8.68 0 4.34 4.34 0 1 1 8.68 0z" style="fill: rgb(237, 236, 236);" transform="translate(312.231 74.352) scale(.52798)"/>
  <path d="M181.3 45.924a4.34 4.34 0 1 1-8.68 0 4.34 4.34 0 1 1 8.68 0z" style="fill: rgb(237, 236, 236);" transform="translate(312.071 66.423) scale(.52798)"/>
  <path d="M181.3 45.924a4.34 4.34 0 1 1-8.68 0 4.34 4.34 0 1 1 8.68 0z" style="fill: rgb(237, 236, 236);" transform="translate(310.181 58.439) scale(.52798)"/>
  <path d="M181.3 45.924a4.34 4.34 0 1 1-8.68 0 4.34 4.34 0 1 1 8.68 0z" style="fill: rgb(237, 236, 236);" transform="translate(307.161 51.75) scale(.52798)"/>
  <path d="M181.3 45.924a4.34 4.34 0 1 1-8.68 0 4.34 4.34 0 1 1 8.68 0z" style="fill: rgb(237, 236, 236);" transform="translate(302.461 45.168) scale(.52798)"/>
  <path d="M181.3 45.924a4.34 4.34 0 1 1-8.68 0 4.34 4.34 0 1 1 8.68 0z" style="fill: rgb(237, 236, 236);" transform="translate(297.181 39.99) scale(.52798)"/>
  <path d="M181.3 45.924a4.34 4.34 0 1 1-8.68 0 4.34 4.34 0 1 1 8.68 0z" style="fill: rgb(237, 236, 236);" transform="translate(290.601 35.728) scale(.52798)"/>
  <path d="M181.3 45.924a4.34 4.34 0 1 1-8.68 0 4.34 4.34 0 1 1 8.68 0z" style="fill: rgb(237, 236, 236);" transform="translate(283.481 32.815) scale(.52798)"/>
  <path d="M181.3 45.924a4.34 4.34 0 1 1-8.68 0 4.34 4.34 0 1 1 8.68 0z" style="fill: rgb(237, 236, 236);" transform="translate(276.251 31.358) scale(.52798)"/>
  <path d="M245.19 205.37a30.961 30.961 0 1 1-61.922 0 30.961 30.961 0 1 1 61.922 0z" style="stroke-width: 0.9; fill: none; stroke: rgb(237, 236, 236);" transform="translate(134.741 -124.598) scale(1.0718)"/>
  <path d="M307.72 218.7a79.737 79.737 0 1 1-159.47 0 79.737 79.737 0 1 1 159.47 0z" style="stroke-width: 2.8275; fill: none; stroke: rgb(237, 236, 236);" transform="translate(256.051 -8.63) scale(.47731)"/>
  <path d="m343.79 53.471-3.433-2.937.267 4.463-3.319-2.747.267 4.272-3.09-2.593.65 4.31-3.32-1.945 1.107 3.814-4.196-1.106 1.83 3.471-3.928-.8 1.983 3.547-4.348-.61 2.594 3.356h-4.12l2.67 2.289-4.005.724 2.746 2.25-4.12 1.26 3.014 2.403-3.51 1.793 3.243 1.602-4.12 2.212 3.205.61-3.357 2.938 3.738.457-3.357 3.205 4.12.19-3.547 3.243 4.12-.077-3.243 3.052 4.539.076-3.013 3.128 4.12-.458-2.824 4.12 4.502-1.45-2.594 4.73 4.348-1.907-1.602 5.531 4.31-2.517-1.258 5.569 4.463-2.785-.801 5.493 3.929-3.128-.344 5.76 3.891-3.89.725 5.607 3.586-3.967 1.03 5.607 3.09-4.54 1.563 5.265 2.327-4.96 2.517 5.265 1.603-5.226 2.555 4.883 1.45-5.531 3.28 4.577.687-5.455 3.738 4.158.153-5.607 3.967 3.814-.305-5.95 4.157 3.356-.877-5.454 3.89 2.975-1.067-5.76 4.5 2.212-1.601-5.607 4.615 1.831-2.441-5.035 4.844 1.526-3.28-4.959 5.073.458-3.7-3.891 4.54-.229-3.815-3.433 4.806-1.259-4.31-2.937 4.577-1.182-4.196-2.175 4.234-1.182-4.691-1.64 4.157-2.594-5.111-.42 3.853-2.86h-4.235l4.158-2.9-5.34.153 3.433-3.662-4.959 1.22 3.357-3.776-4.845.458 2.213-4.387-4.578 1.793 1.755-4.997-4.005 2.403 1.144-5.111-3.967 2.975.267-5.57-3.376 3.377-.644-5.612-3.938 3.075-.81-5.017-3.02 3.83-.648-4.693-2.805 4.153-1.456-4.747-1.672 4.1-2.104-4.585-1.403 4.585-2.805-4.046-.378 4.316-3.614-3.615-.216 4.532-3.344-3.29-.495 4.439z" style="stroke-width: 0.30554px; fill: none; stroke: rgb(237, 236, 236);" transform="translate(8.541 11.082)"/>
  <path d="M190.13 167.3a8.364 8.364 0 1 1-16.729 0 8.364 8.364 0 1 1 16.729 0z" style="stroke-width: 0.9; fill: rgb(237, 236, 236); stroke: rgb(237, 236, 236);" transform="translate(309.271 43.571) scale(.30554)"/>
  <path d="m355.14 85.791.811.01s-1.193 11.455-4.748 43.972l-4.152-.08" style="fill-rule: evenodd; stroke-width: 0.34863px; fill: rgb(237, 236, 236); stroke: rgb(237, 236, 236);" transform="translate(8.541 11.082)"/>
  <path d="m356.81 85.753-.83.01s1.716 13.764 5.286 44.121l3.826-.233" style="fill-rule: evenodd; stroke-width: 0.35273px; stroke: rgb(237, 236, 236); fill: rgb(237, 236, 236);" transform="translate(8.541 11.082)"/>
  <path d="M-1681 1090.8V918.9h3.332v-42.268h-6.407v-6.839h-2.948l-8.713-14.415v-13.152l-9.41-29.756-.064-5.522v5.521l-10.21 29.756v13.152l-8.715 14.415h-2.947v6.84h-6.407v42.267h3.332v171.92l49.159-.025z" style="fill-rule: evenodd; stroke-width: 0.12335; fill: rgb(120, 117, 117); stroke: rgb(120, 117, 117);" transform="translate(665.981 -95.463) scale(.20584)"/>
  <path d="M279.57 282.48a33.948 33.948 0 1 1-67.895 0 33.948 33.948 0 1 1 67.895 0z" style="fill:#fff" transform="matrix(.09033 0 0 .09033 292.464 63.618)"/>
  <path d="m-1783.8 1021 80.458-.233v77.83l-80.625.233.167-77.83z" style="fill-rule: evenodd; fill: rgb(120, 117, 117);" transform="translate(665.981 -97.078) scale(.20584)"/>
  <path d="m101.7 69.632-2.348 3.584-.107-11.79-1.491-2.256-1.929 2.184-.029 54.626L115.122 109V116l.029-54.392-1.595-2.65-1.879 2.47v11.836l-2.264-3.572-2.09-.006-.048-3.37-1.843-2.961-1.817 3.033.004 3.246-1.919-.002z" style="fill-rule: evenodd; fill: rgb(120, 117, 117);" transform="translate(8.541 12.582)"/>
  <path d="M193.3 109.99V94.427l-1.922-5.382v-4.357s-3.244-7.932-3.372-13.442c-.055-.2-.07-.207-.12-.008-.128 5.51-3.358 13.448-3.358 13.448v4.357l-1.922 4.254v16.691" style="fill-rule: evenodd; stroke: rgb(0, 0, 0); stroke-width: 0.018123; fill: rgb(120, 117, 117);" transform="translate(8.541 12.582)"/>
  <path d="M165.44 128.28h-11.094V93.056l1.44-3.258 1.126 3.239.015 3.334h6.072v-3.62l1.195-2.94 1.233 2.996.013 35.473zM221.53 128.3h-11.094V93.076l1.44-3.258 1.126 3.239.015 3.334h6.072v-3.62l1.195-2.94 1.233 2.996.013 35.473z" style="fill-rule: evenodd; stroke-width: 0.20584px; fill: rgb(237, 236, 236); stroke: rgb(237, 236, 236);" transform="translate(8.541 12.582)"/>
  <path d="M213.88 436.87h-53.896V265.75l6.994-15.827 5.472 15.733.072 16.198h29.498v-17.588l5.807-14.283 5.99 14.556.063 172.33zM125.61 436.89l-53.896.083v-171.2l6.994-15.827 5.472 15.733.072 16.198h29.498V264.29l5.807-14.283 5.99 14.556.063 172.33z" style="fill-rule: evenodd; stroke-width: 1px; fill: rgb(237, 236, 236); stroke: rgb(237, 236, 236);" transform="translate(69.76 50.93) scale(.20584)"/>
  <path d="m134.16 311.02.163 1.277c1.446.897 1.601 3.124 1.568 3.138l-.049 13.527-3.48.021-.048-13.549c-.034-.013.122-2.24 1.568-3.138l.098-1.276h.18z" style="fill-rule: evenodd; stroke-width: 0.23449; fill: rgb(237, 236, 236); stroke: rgb(237, 236, 236);" transform="translate(69.76 50.93) scale(.20584)"/>
  <path d="M92.34 329.55h102.11l-2.347 106.91-100.55.044.787-106.95z" style="fill-rule: evenodd; stroke-width: 1.8606px; fill: rgb(237, 236, 236); stroke: rgb(237, 236, 236);" transform="translate(69.76 50.93) scale(.20584)"/>
  <path d="m152.87 311.02.163 1.277c1.446.897 1.601 3.124 1.568 3.138l-.049 13.527-3.48.021-.048-13.549c-.034-.013.122-2.24 1.568-3.138l.098-1.276h.18z" style="fill-rule: evenodd; stroke-width: 0.23449; fill: rgb(237, 236, 236); stroke: rgb(237, 236, 236);" transform="translate(69.76 50.93) scale(.20584)"/>
  <path d="M1159.8 436.92h-53.896V265.8l6.994-15.827 5.472 15.733.071 16.198h29.498v-17.588l5.807-14.283 5.99 14.556.064 172.33zM1071.5 436.93h-53.896V265.81l6.994-15.827 5.472 15.733.071 16.198h29.498v-17.588l5.807-14.283 5.99 14.556.064 172.33z" style="fill-rule: evenodd; stroke-width: 1px; fill: rgb(237, 236, 236); stroke: rgb(237, 236, 236);" transform="translate(69.76 50.93) scale(.20584)"/>
  <path d="m1080.1 311.07.163 1.277c1.446.897 1.601 3.124 1.568 3.138l-.05 13.527-3.479.021-.048-13.549c-.034-.013.122-2.24 1.568-3.138l.098-1.276h.18z" style="fill-rule: evenodd; stroke-width: 0.23449; stroke: rgb(237, 236, 236); fill: rgb(237, 236, 236);" transform="translate(69.76 50.93) scale(.20584)"/>
  <path d="M1039.6 329.58h99.399l-2.285 106.93-97.88.044.766-106.98z" style="fill-rule: evenodd; stroke-width: 1.8359px; stroke: rgb(237, 236, 236); fill: rgb(237, 236, 236);" transform="translate(69.76 50.93) scale(.20584)"/>
  <path d="m1098.8 311.07.163 1.277c1.446.897 1.601 3.124 1.568 3.138l-.048 13.527-3.48.021-.049-13.549c-.034-.013.122-2.24 1.568-3.138l.098-1.276h.18zM229.56 325.34l.163 1.277c1.446.897 1.601 3.124 1.568 3.138l-.049 13.527-3.48.021-.048-13.549c-.034-.013.122-2.24 1.568-3.138l.098-1.276h.18zM250.09 325.34l.163 1.277c1.446.897 1.601 3.124 1.568 3.138l-.049 13.527-3.48.021-.048-13.549c-.034-.013.122-2.24 1.568-3.138l.098-1.276h.18zM271.03 325.34l.163 1.277c1.446.897 1.601 3.124 1.568 3.138l-.049 13.527-3.48.021-.048-13.549c-.034-.013.122-2.24 1.568-3.138l.098-1.276h.18zM291.56 325.34l.163 1.277c1.446.897 1.601 3.124 1.568 3.138l-.049 13.527-3.48.021-.048-13.549c-.034-.013.122-2.24 1.568-3.138l.098-1.276h.18zM312.36 325.7l.163 1.277c1.446.897 1.601 3.124 1.568 3.138l-.049 13.527-3.48.021-.048-13.549c-.034-.013.122-2.24 1.568-3.138l.098-1.276h.18zM332.89 325.7l.163 1.277c1.446.897 1.601 3.124 1.568 3.138l-.049 13.527-3.48.021-.048-13.549c-.034-.013.122-2.24 1.568-3.138l.098-1.276h.18zM353.83 325.7l.163 1.277c1.446.897 1.601 3.124 1.568 3.138l-.049 13.527-3.48.021-.048-13.549c-.034-.013.122-2.24 1.568-3.138l.098-1.276h.18zM374.36 325.7l.163 1.277c1.446.897 1.601 3.124 1.568 3.138l-.049 13.527-3.48.021-.048-13.549c-.034-.013.122-2.24 1.568-3.138l.098-1.276h.18zM396.16 324.99l.163 1.277c1.446.897 1.601 3.124 1.568 3.138l-.049 13.527-3.48.021-.048-13.549c-.034-.013.122-2.24 1.568-3.138l.098-1.276h.18zM417.1 324.99l.163 1.277c1.446.897 1.601 3.124 1.568 3.138l-.049 13.527-3.48.021-.048-13.549c-.034-.013.122-2.24 1.568-3.138l.098-1.276h.18zM437.63 324.99l.163 1.277c1.446.897 1.601 3.124 1.568 3.138l-.049 13.527-3.48.021-.048-13.549c-.034-.013.122-2.24 1.568-3.138l.098-1.276h.18z" style="fill-rule: evenodd; stroke-width: 0.23449; fill: rgb(237, 236, 236); stroke: rgb(237, 236, 236);" transform="translate(69.76 50.93) scale(.20584)"/>
  <path d="M175.23 342.82H491.2v93.987l-317.13.079 1.159-94.065z" style="fill-rule: evenodd; stroke-width: 1.1498px; stroke: rgb(237, 236, 236); fill: rgb(237, 236, 236);" transform="translate(69.76 50.93) scale(.20584)"/>
  <path d="m792.86 325.43.165 1.277c1.464.897 1.621 3.124 1.587 3.138l-.049 13.527-3.523.021-.05-13.549c-.033-.013.124-2.24 1.588-3.138l.1-1.276h.182zM813.65 325.43l.165 1.277c1.464.897 1.621 3.124 1.587 3.138l-.049 13.527-3.523.021-.05-13.549c-.033-.013.124-2.24 1.588-3.138l.1-1.276h.182zM834.85 325.43l.165 1.277c1.464.897 1.621 3.124 1.587 3.138l-.049 13.527-3.523.021-.05-13.549c-.033-.013.124-2.24 1.588-3.138l.1-1.276h.182zM855.64 325.43l.165 1.277c1.464.897 1.621 3.124 1.587 3.138l-.049 13.527-3.523.021-.05-13.549c-.033-.013.124-2.24 1.588-3.138l.1-1.276h.182zM876.7 325.79l.165 1.277c1.464.897 1.621 3.124 1.587 3.138l-.049 13.527-3.523.021-.05-13.549c-.033-.013.124-2.24 1.588-3.138l.1-1.276h.182zM897.48 325.79l.165 1.277c1.464.897 1.621 3.124 1.587 3.138l-.049 13.527-3.523.021-.05-13.549c-.033-.013.124-2.24 1.588-3.138l.1-1.276h.182zM918.68 325.79l.165 1.277c1.464.897 1.621 3.124 1.587 3.138l-.049 13.527-3.523.021-.05-13.549c-.033-.013.124-2.24 1.588-3.138l.1-1.276h.182zM939.47 325.79l.165 1.277c1.464.897 1.621 3.124 1.587 3.138l-.049 13.527-3.523.021-.05-13.549c-.033-.013.124-2.24 1.588-3.138l.1-1.276h.182zM961.55 325.08l.165 1.277c1.464.897 1.621 3.124 1.587 3.138l-.049 13.527-3.523.021-.05-13.549c-.033-.013.124-2.24 1.588-3.138l.1-1.276h.182zM982.75 325.08l.165 1.277c1.464.897 1.621 3.124 1.587 3.138l-.049 13.527-3.523.021-.05-13.549c-.033-.013.124-2.24 1.588-3.138l.1-1.276h.182zM1003.5 325.08l.165 1.277c1.464.897 1.621 3.124 1.587 3.138l-.049 13.527-3.523.021-.049-13.549c-.034-.013.124-2.24 1.588-3.138l.099-1.276h.182z" style="fill-rule: evenodd; stroke-width: 0.23595; fill: rgb(237, 236, 236); stroke: rgb(237, 236, 236);" transform="translate(69.76 50.93) scale(.20584)"/>
  <path d="M742.55 342.91h310.51v94.003H741.41l1.139-94.003z" style="fill-rule: evenodd; stroke-width: 1.1399px; stroke: rgb(237, 236, 236); paint-order: fill; fill: rgb(237, 236, 236);" transform="translate(69.76 50.93) scale(.20584)"/>
  <path d="m519.06 312.77.163 1.277c1.446.897 1.601 3.124 1.568 3.138l-.049 13.527-3.48.021-.048-13.549c-.034-.013.122-2.24 1.568-3.138l.098-1.276h.18zM540.56 312.71l.163 1.277c1.446.897 1.601 3.124 1.568 3.138l-.049 13.527-3.48.021-.048-13.549c-.034-.013.122-2.24 1.568-3.138l.098-1.276h.18zM561.56 312.71l.163 1.277c1.446.897 1.601 3.124 1.568 3.138l-.049 13.527-3.48.021-.048-13.549c-.034-.013.122-2.24 1.568-3.138l.098-1.276h.18zM583.06 312.71l.163 1.277c1.446.897 1.601 3.124 1.568 3.138l-.049 13.527-3.48.021-.048-13.549c-.034-.013.122-2.24 1.568-3.138l.098-1.276h.18zM604.19 312.71l.163 1.277c1.446.897 1.601 3.124 1.568 3.138l-.049 13.527-3.48.021-.048-13.549c-.034-.013.122-2.24 1.568-3.138l.098-1.276h.18zM625.31 312.71l.163 1.277c1.446.897 1.601 3.124 1.568 3.138l-.049 13.527-3.48.021-.048-13.549c-.034-.013.122-2.24 1.568-3.138l.098-1.276h.18zM645.94 312.71l.163 1.277c1.446.897 1.601 3.124 1.568 3.138l-.049 13.527-3.48.021-.048-13.549c-.034-.013.122-2.24 1.568-3.138l.098-1.276h.18zM667.19 312.71l.163 1.277c1.446.897 1.601 3.124 1.568 3.138l-.049 13.527-3.48.021-.048-13.549c-.034-.013.122-2.24 1.568-3.138l.098-1.276h.18zM688.56 312.71l.163 1.277c1.446.897 1.601 3.124 1.568 3.138l-.049 13.527-3.48.021-.048-13.549c-.034-.013.122-2.24 1.568-3.138l.098-1.276h.18zM710.06 312.71l.163 1.277c1.446.897 1.601 3.124 1.568 3.138l-.049 13.527-3.48.021-.048-13.549c-.034-.013.122-2.24 1.568-3.138l.098-1.276h.18z" style="fill-rule: evenodd; stroke-width: 0.23449; fill: rgb(237, 236, 236); stroke: rgb(237, 236, 236);" transform="translate(69.76 50.93) scale(.20584)"/>
  <path d="M469.13 330.87h293.58v105.98H467.83l1.302-105.98z" style="fill-rule: evenodd; stroke-width: 1.1562px; stroke: rgb(237, 236, 236); fill: rgb(237, 236, 236);" transform="translate(69.76 50.93) scale(.20584)"/>
</svg>
